# xmcd
#
# Track frame offsets:
#	150
#	12722
#	28987
#	42742
#	59360
#	74535
#	94172
#	97755
#	116230
#	129710
#	146420
#	162425
#	165272
#	176092
#
# Disc length: 2557 seconds
#
# Revision: 2
# Processed by: cddbd v1.4PL0 Copyright (c) Steve Scherf et al.
# Submitted via: dBpowerAMP V4.0
#
DISCID=cd09fb0e
DTITLE=Masters of Reality - Sunrise on the Sufferbus
DYEAR=1992
DGENRE=Blues
TTITLE0=She Got Me (when she got her dress on)
TTITLE1=J.B. Witchdance
TTITLE2=Jody Sings
TTITLE3=Rolling Green
TTITLE4=Ants In the Kitchen
TTITLE5=V.H.V.
TTITLE6=Bicycle
TTITLE7=100 Years (of tears on the wind)
TTITLE8=T.U.S.A.
TTITLE9=Tilt-A-Whirl
TTITLE10=Rabbit One
TTITLE11=Madonna
TTITLE12=Gimme Water
TTITLE13=The Moon in your Pocket
EXTD=
EXTT0=
EXTT1=
EXTT2=
EXTT3=
EXTT4=
EXTT5=
EXTT6=
EXTT7=
EXTT8=
EXTT9=
EXTT10=
EXTT11=
EXTT12=
EXTT13=
PLAYORDER=
